<svg width="100" height="100" viewBox="0 0 100 100" fill="none" xmlns="http://www.w3.org/2000/svg">
<path d="M71.5975 40.017C74.7741 42.787 74.3544 47.8427 70.7647 50.051L46.8386 64.7697C44.9898 65.9071 43.8635 67.9224 43.8635 70.0931L43.8635 85.75C43.8635 89.2018 41.0652 92 37.6135 92L34.25 92C30.7982 92 28 89.2018 28 85.75L28 15.7425C28 10.3777 34.3143 7.50604 38.3576 11.0319L71.5975 40.017Z" fill="#BBBBBB"/>
<path d="M69.2914 29.6006C73.2674 32.0658 73.2251 37.8649 69.2136 40.2719L37.4656 59.3206C33.2998 61.8201 28 58.8194 28 53.9613L28 15.2288C28 10.3299 33.3798 7.33549 37.5434 9.91689L69.2914 29.6006Z" fill="#4C835D"/>
</svg>
